<svg width="26" height="26" viewBox="0 0 26 26" fill="none" xmlns="http://www.w3.org/2000/svg">
<path d="M8.9375 2.4375V5.6875" stroke="#1F2729" stroke-width="2" stroke-linecap="round" stroke-linejoin="round"/>
<path d="M12.1875 2.4375V5.6875" stroke="#1F2729" stroke-width="2" stroke-linecap="round" stroke-linejoin="round"/>
<path d="M15.4375 2.4375V5.6875" stroke="#1F2729" stroke-width="2" stroke-linecap="round" stroke-linejoin="round"/>
<path d="M3.25 21.9375H21.125" stroke="#1F2729" stroke-width="2" stroke-linecap="round" stroke-linejoin="round"/>
<path d="M8.46016 21.9375C6.9051 21.224 5.58754 20.0791 4.66397 18.6388C3.7404 17.1985 3.24965 15.5234 3.25 13.8125V8.9375H21.125V13.8125C21.1254 15.5234 20.6346 17.1985 19.711 18.6388C18.7875 20.0791 17.4699 21.224 15.9148 21.9375" stroke="#1F2729" stroke-width="2" stroke-linecap="round" stroke-linejoin="round"/>
<path d="M21.125 8.9375C21.987 8.9375 22.8136 9.27991 23.4231 9.8894C24.0326 10.4989 24.375 11.3255 24.375 12.1875V13C24.375 13.862 24.0326 14.6886 23.4231 15.2981C22.8136 15.9076 21.987 16.25 21.125 16.25H20.7797" stroke="#1F2729" stroke-width="2" stroke-linecap="round" stroke-linejoin="round"/>
</svg>
