<svg width="232" height="171" viewBox="0 0 232 171" fill="none" xmlns="http://www.w3.org/2000/svg">
<path d="M4.8 94.42H14.16V136H4.8V94.42ZM23.1844 105.52C24.7044 105.08 26.6644 104.68 29.0644 104.32C31.4644 103.92 33.9844 103.72 36.6244 103.72C39.3044 103.72 41.5244 104.08 43.2844 104.8C45.0844 105.48 46.5044 106.46 47.5444 107.74C48.5844 109.02 49.3244 110.54 49.7644 112.3C50.2044 114.06 50.4244 116.02 50.4244 118.18V136H41.4844V119.26C41.4844 116.38 41.1044 114.34 40.3444 113.14C39.5844 111.94 38.1644 111.34 36.0844 111.34C35.4444 111.34 34.7644 111.38 34.0444 111.46C33.3244 111.5 32.6844 111.56 32.1244 111.64V136H23.1844V105.52ZM66.1589 136C64.1189 132 62.0389 127.32 59.9189 121.96C57.8389 116.6 55.8589 110.76 53.9789 104.44H63.4589C63.8589 106 64.3189 107.7 64.8389 109.54C65.3989 111.34 65.9589 113.18 66.5189 115.06C67.1189 116.9 67.6989 118.7 68.2589 120.46C68.8589 122.22 69.4389 123.82 69.9989 125.26C70.5189 123.82 71.0789 122.22 71.6789 120.46C72.2789 118.7 72.8589 116.9 73.4189 115.06C74.0189 113.18 74.5789 111.34 75.0989 109.54C75.6589 107.7 76.1389 106 76.5389 104.44H85.7789C83.8989 110.76 81.8989 116.6 79.7789 121.96C77.6989 127.32 75.6389 132 73.5989 136H66.1589ZM88.2469 120.46C88.2469 117.66 88.6669 115.22 89.5069 113.14C90.3869 111.02 91.5269 109.26 92.9269 107.86C94.3269 106.46 95.9269 105.4 97.7269 104.68C99.5669 103.96 101.447 103.6 103.367 103.6C107.847 103.6 111.387 104.98 113.987 107.74C116.587 110.46 117.887 114.48 117.887 119.8C117.887 120.32 117.867 120.9 117.827 121.54C117.787 122.14 117.747 122.68 117.707 123.16H97.4269C97.6269 125 98.4869 126.46 100.007 127.54C101.527 128.62 103.567 129.16 106.127 129.16C107.767 129.16 109.367 129.02 110.927 128.74C112.527 128.42 113.827 128.04 114.827 127.6L116.027 134.86C115.547 135.1 114.907 135.34 114.107 135.58C113.307 135.82 112.407 136.02 111.407 136.18C110.447 136.38 109.407 136.54 108.287 136.66C107.167 136.78 106.047 136.84 104.927 136.84C102.087 136.84 99.6069 136.42 97.4869 135.58C95.4069 134.74 93.6669 133.6 92.2669 132.16C90.9069 130.68 89.8869 128.94 89.2069 126.94C88.5669 124.94 88.2469 122.78 88.2469 120.46ZM109.247 117.04C109.207 116.28 109.067 115.54 108.827 114.82C108.627 114.1 108.287 113.46 107.807 112.9C107.367 112.34 106.787 111.88 106.067 111.52C105.387 111.16 104.527 110.98 103.487 110.98C102.487 110.98 101.627 111.16 100.907 111.52C100.187 111.84 99.5869 112.28 99.1069 112.84C98.6269 113.4 98.2469 114.06 97.9669 114.82C97.7269 115.54 97.5469 116.28 97.4269 117.04H109.247ZM143.806 112.36C143.006 112.16 142.066 111.96 140.986 111.76C139.906 111.52 138.746 111.4 137.506 111.4C136.946 111.4 136.266 111.46 135.466 111.58C134.706 111.66 134.126 111.76 133.726 111.88V136H124.786V106.12C126.386 105.56 128.266 105.04 130.426 104.56C132.626 104.04 135.066 103.78 137.746 103.78C138.226 103.78 138.806 103.82 139.486 103.9C140.166 103.94 140.846 104.02 141.526 104.14C142.206 104.22 142.886 104.34 143.566 104.5C144.246 104.62 144.826 104.78 145.306 104.98L143.806 112.36ZM149.798 96.58L158.738 95.14V104.44H169.478V111.88H158.738V122.98C158.738 124.86 159.058 126.36 159.698 127.48C160.378 128.6 161.718 129.16 163.718 129.16C164.678 129.16 165.658 129.08 166.658 128.92C167.698 128.72 168.638 128.46 169.478 128.14L170.738 135.1C169.658 135.54 168.458 135.92 167.138 136.24C165.818 136.56 164.198 136.72 162.278 136.72C159.838 136.72 157.818 136.4 156.218 135.76C154.618 135.08 153.338 134.16 152.378 133C151.418 131.8 150.738 130.36 150.338 128.68C149.978 127 149.798 125.14 149.798 123.1V96.58ZM174.087 120.46C174.087 117.66 174.507 115.22 175.347 113.14C176.227 111.02 177.367 109.26 178.767 107.86C180.167 106.46 181.767 105.4 183.567 104.68C185.407 103.96 187.287 103.6 189.207 103.6C193.687 103.6 197.227 104.98 199.827 107.74C202.427 110.46 203.727 114.48 203.727 119.8C203.727 120.32 203.707 120.9 203.667 121.54C203.627 122.14 203.587 122.68 203.547 123.16H183.267C183.467 125 184.327 126.46 185.847 127.54C187.367 128.62 189.407 129.16 191.967 129.16C193.607 129.16 195.207 129.02 196.767 128.74C198.367 128.42 199.667 128.04 200.667 127.6L201.867 134.86C201.387 135.1 200.747 135.34 199.947 135.58C199.147 135.82 198.247 136.02 197.247 136.18C196.287 136.38 195.247 136.54 194.127 136.66C193.007 136.78 191.887 136.84 190.767 136.84C187.927 136.84 185.447 136.42 183.327 135.58C181.247 134.74 179.507 133.6 178.107 132.16C176.747 130.68 175.727 128.94 175.047 126.94C174.407 124.94 174.087 122.78 174.087 120.46ZM195.087 117.04C195.047 116.28 194.907 115.54 194.667 114.82C194.467 114.1 194.127 113.46 193.647 112.9C193.207 112.34 192.627 111.88 191.907 111.52C191.227 111.16 190.367 110.98 189.327 110.98C188.327 110.98 187.467 111.16 186.747 111.52C186.027 111.84 185.427 112.28 184.947 112.84C184.467 113.4 184.087 114.06 183.807 114.82C183.567 115.54 183.387 116.28 183.267 117.04H195.087ZM229.646 112.36C228.846 112.16 227.906 111.96 226.826 111.76C225.746 111.52 224.586 111.4 223.346 111.4C222.786 111.4 222.106 111.46 221.306 111.58C220.546 111.66 219.966 111.76 219.566 111.88V136H210.626V106.12C212.226 105.56 214.106 105.04 216.266 104.56C218.466 104.04 220.906 103.78 223.586 103.78C224.066 103.78 224.646 103.82 225.326 103.9C226.006 103.94 226.686 104.02 227.366 104.14C228.046 104.22 228.726 104.34 229.406 104.5C230.086 104.62 230.666 104.78 231.146 104.98L229.646 112.36Z" fill="black"/>
<path d="M57.7 41.86C58.18 43.5 58.7 45.36 59.26 47.44C59.86 49.48 60.48 51.6 61.12 53.8C61.8 56 62.48 58.2 63.16 60.4C63.84 62.6 64.5 64.64 65.14 66.52C65.66 64.48 66.18 62.26 66.7 59.86C67.26 57.46 67.78 54.98 68.26 52.42C68.74 49.86 69.2 47.32 69.64 44.8C70.12 42.24 70.56 39.78 70.96 37.42H80.68C79.28 44.38 77.66 51.44 75.82 58.6C74.02 65.76 72.06 72.56 69.94 79H61.36C59.96 75.16 58.6 71.14 57.28 66.94C55.96 62.7 54.66 58.46 53.38 54.22C52.1 58.46 50.82 62.7 49.54 66.94C48.26 71.14 46.92 75.16 45.52 79H36.94C34.82 72.56 32.84 65.76 31 58.6C29.2 51.44 27.6 44.38 26.2 37.42H36.34C36.74 39.78 37.18 42.24 37.66 44.8C38.14 47.32 38.64 49.86 39.16 52.42C39.68 54.98 40.2 57.46 40.72 59.86C41.28 62.26 41.84 64.48 42.4 66.52C43.12 64.56 43.82 62.48 44.5 60.28C45.18 58.08 45.84 55.88 46.48 53.68C47.12 51.48 47.7 49.36 48.22 47.32C48.78 45.28 49.28 43.46 49.72 41.86H57.7ZM162.771 55.36C161.971 55.16 161.031 54.96 159.951 54.76C158.871 54.52 157.711 54.4 156.471 54.4C155.911 54.4 155.231 54.46 154.431 54.58C153.671 54.66 153.091 54.76 152.691 54.88V79H143.751V49.12C145.351 48.56 147.231 48.04 149.391 47.56C151.591 47.04 154.031 46.78 156.711 46.78C157.191 46.78 157.771 46.82 158.451 46.9C159.131 46.94 159.811 47.02 160.491 47.14C161.171 47.22 161.851 47.34 162.531 47.5C163.211 47.62 163.791 47.78 164.271 47.98L162.771 55.36ZM176.097 62.98C176.097 65.74 176.717 67.96 177.957 69.64C179.197 71.32 181.037 72.16 183.477 72.16C184.277 72.16 185.017 72.14 185.697 72.1C186.377 72.02 186.937 71.94 187.377 71.86V55.6C186.817 55.24 186.077 54.94 185.157 54.7C184.277 54.46 183.377 54.34 182.457 54.34C178.217 54.34 176.097 57.22 176.097 62.98ZM196.317 77.98C195.517 78.22 194.597 78.46 193.557 78.7C192.517 78.9 191.417 79.08 190.257 79.24C189.137 79.4 187.977 79.52 186.777 79.6C185.617 79.72 184.497 79.78 183.417 79.78C180.817 79.78 178.497 79.4 176.457 78.64C174.417 77.88 172.697 76.8 171.297 75.4C169.897 73.96 168.817 72.24 168.057 70.24C167.337 68.2 166.977 65.92 166.977 63.4C166.977 60.84 167.297 58.54 167.937 56.5C168.577 54.42 169.497 52.66 170.697 51.22C171.897 49.78 173.357 48.68 175.077 47.92C176.837 47.16 178.837 46.78 181.077 46.78C182.317 46.78 183.417 46.9 184.377 47.14C185.377 47.38 186.377 47.72 187.377 48.16V33.88L196.317 32.44V77.98Z" fill="#F4FEFD"/>
<g clip-path="url(#clip0_205_2)">
<path d="M131 47V59H119" stroke="#F4FEFD" stroke-width="7" stroke-linecap="round" stroke-linejoin="round"/>
<path d="M87 79V67H99" stroke="black" stroke-width="7" stroke-linecap="round" stroke-linejoin="round"/>
<path d="M92.02 57C93.0343 54.1336 94.7583 51.5708 97.0309 49.5509C99.3036 47.5309 102.051 46.1196 105.017 45.4485C107.982 44.7775 111.07 44.8687 113.99 45.7136C116.911 46.5584 119.571 48.1295 121.72 50.28L131 59" stroke="#F4FEFD" stroke-width="7" stroke-linecap="round" stroke-linejoin="round"/>
<path d="M87 67L96.28 75.72C98.4295 77.8706 101.089 79.4416 104.01 80.2865C106.93 81.1313 110.018 81.2225 112.983 80.5515C115.949 79.8805 118.696 78.4691 120.969 76.4492C123.242 74.4292 124.966 71.8664 125.98 69" stroke="black" stroke-width="7" stroke-linecap="round" stroke-linejoin="round"/>
</g>
<defs>
<clipPath id="clip0_205_2">
<rect width="48" height="48" fill="white" transform="translate(85 39)"/>
</clipPath>
</defs>
</svg>
